<svg xmlns="http://www.w3.org/2000/svg" viewBox="0 0 1254 1254" role="img" aria-label="Game Settings Master">
  <rect width="1254" height="1254" rx="198" fill="#ffc24a"/>
  <g transform="translate(627 627) scale(1.12) translate(-627 -627)">
  <g transform="translate(0 1254) scale(.1 -.1)" fill="#11110f">
    <path d="M1980 12525 c-923 -112 -1684 -778 -1914 -1676 -72 -278 -67 73 -63
-4794 3 -4117 4 -4385 20 -4464 110 -529 403 -957 862 -1257 265 -173 552
-280 858 -319 104 -13 644 -15 4523 -15 3053 0 4435 3 4502 11 579 63 1134
400 1457 884 169 253 275 539 305 822 7 67 10 1497 8 4473 -3 4132 -4 4380
-21 4470 -42 228 -105 419 -207 625 -341 693 -1020 1166 -1788 1244 -162 17
-8404 13 -8542 -4z m4670 -2351 c612 -68 1184 -281 1655 -617 330 -236 640
-545 865 -865 277 -394 477 -833 599 -1320 68 -273 129 -697 110 -767 -13 -45
-64 -104 -106 -121 -39 -17 -111 -18 -150 -3 -62 23 -122 109 -123 174 0 49
-47 336 -76 463 -126 565 -387 1116 -721 1524 -169 208 -399 423 -618 580
-707 506 -1622 691 -2492 503 -978 -212 -1779 -849 -2224 -1770 -185 -383
-313 -826 -360 -1243 -10 -93 -18 -122 -40 -156 -69 -110 -236 -115 -316 -9
-27 35 -28 41 -27 147 3 217 87 632 193 953 254 762 708 1397 1333 1859 500
370 1140 614 1768 673 238 23 496 21 730 -5z m499 -1339 c505 -539 973 -1050
1052 -1148 l39 -49 0 -703 0 -703 -127 2 -128 1 -3 597 -2 597 -403 3 c-372 3
-406 5 -450 23 -110 45 -203 145 -238 255 -19 62 -20 87 -19 488 l1 422 -1018
-2 -1018 -3 -67 -33 c-84 -41 -167 -128 -200 -209 l-23 -58 0 -2056 0 -2055
38 -76 c57 -116 152 -191 275 -217 37 -8 289 -11 816 -11 l764 0 53 -24 c30
-14 70 -28 90 -31 31 -6 37 -12 52 -51 17 -45 16 -46 -13 -105 l-30 -59 -863
0 c-965 0 -935 -2 -1086 71 -71 34 -101 57 -172 129 -70 70 -95 104 -128 172
-78 161 -73 -10 -69 2288 l3 2055 33 95 c41 117 94 201 178 279 95 90 214 149
342 171 26 4 546 7 1156 6 l1108 -1 57 -60z m176 -1849 c44 -19 68 -58 68
-109 0 -56 -25 -101 -67 -121 -31 -14 -139 -16 -1161 -16 -1025 0 -1129 1
-1155 16 -82 49 -80 187 4 228 45 22 2258 24 2311 2z m5 -661 c39 -20 60 -63
60 -120 0 -38 -6 -52 -34 -83 l-34 -37 -1152 0 -1152 0 -34 37 c-29 32 -34 45
-34 87 0 39 6 56 27 81 14 18 36 36 47 40 12 5 529 9 1149 9 990 1 1132 -1
1157 -14z m957 -286 c77 -37 93 -70 164 -331 5 -21 14 -38 20 -38 6 0 44 -16
86 -35 l76 -35 121 67 c194 108 230 99 426 -104 190 -197 196 -229 87 -429
l-63 -116 39 -92 39 -92 126 -38 c140 -42 181 -67 215 -129 20 -39 22 -57 25
-244 4 -236 -5 -286 -63 -346 -34 -35 -71 -50 -245 -98 -25 -7 -50 -17 -56
-23 -6 -6 -26 -47 -44 -92 l-32 -81 60 -119 c73 -142 82 -183 54 -246 -25 -56
-240 -290 -299 -325 -45 -26 -117 -33 -163 -15 -14 5 -69 35 -123 66 -53 31
-99 56 -102 56 -4 0 -44 -17 -91 -37 l-84 -36 -21 -71 c-11 -39 -29 -101 -40
-138 -23 -78 -57 -124 -114 -149 -35 -16 -68 -19 -250 -19 -182 0 -215 3 -250
19 -64 29 -99 77 -124 172 -54 202 -40 179 -135 222 -47 20 -87 37 -91 37 -3
0 -59 -29 -124 -65 -192 -106 -233 -96 -424 106 -186 197 -191 215 -91 412
l66 130 -32 81 c-18 45 -38 86 -44 93 -6 6 -59 25 -118 42 -122 34 -142 43
-181 80 -58 53 -61 69 -65 286 -5 247 3 290 62 349 37 37 55 46 174 81 l133
40 36 90 36 90 -67 130 c-104 205 -98 230 111 437 108 106 147 138 178 147 22
6 45 11 52 11 28 0 104 -32 197 -83 l98 -55 78 34 c43 19 83 34 89 34 6 0 14
12 17 28 64 259 86 305 169 343 35 16 67 19 249 19 193 0 213 -2 253 -21z
m-2133 -349 c59 -22 85 -126 47 -184 -38 -57 -21 -55 -624 -56 l-559 0 -34 34
c-29 29 -34 41 -34 80 0 26 7 60 15 76 31 60 18 59 617 60 332 0 557 -4 572
-10z"/>
    <path d="M7112 8153 c3 -383 5 -391 81 -441 l40 -27 309 -3 c193 -2 308 1 308
7 0 5 -46 60 -102 122 -206 227 -621 674 -630 677 -5 2 -8 -139 -6 -335z"/>
    <path d="M7831 5944 c-43 -18 -54 -41 -96 -193 -45 -164 -28 -144 -185 -211
-52 -22 -106 -40 -120 -40 -14 0 -78 29 -142 65 -151 84 -168 84 -245 13 -111
-105 -213 -226 -213 -254 0 -14 33 -88 73 -164 66 -127 71 -141 61 -167 -60
-146 -97 -230 -107 -239 -7 -6 -72 -28 -145 -49 -143 -41 -175 -61 -186 -116
-3 -18 -6 -108 -6 -201 0 -245 -2 -241 200 -298 63 -17 123 -37 133 -44 17
-10 100 -195 114 -252 3 -15 -19 -68 -67 -160 -57 -110 -71 -143 -66 -167 6
-31 218 -261 263 -285 37 -20 68 -10 198 63 65 36 127 65 139 65 13 0 54 -15
92 -34 38 -18 86 -39 107 -47 21 -7 44 -20 51 -29 8 -8 28 -67 46 -130 63
-230 49 -220 303 -220 182 0 214 6 245 43 7 8 28 72 47 143 19 71 39 138 44
150 6 13 33 30 68 44 32 13 84 36 115 52 32 15 67 28 78 28 11 0 78 -32 148
-70 76 -42 140 -70 157 -70 25 0 51 21 163 136 117 121 132 140 132 170 0 22
-23 80 -65 164 -36 71 -65 135 -65 142 0 7 23 68 52 136 36 85 59 127 73 133
11 4 79 26 152 49 95 29 136 47 148 62 12 19 15 60 15 237 0 207 -1 216 -22
238 -14 15 -69 38 -164 68 -79 25 -147 51 -151 58 -18 28 -103 243 -103 260 0
11 29 73 65 138 97 175 98 169 -68 335 -116 118 -136 134 -165 134 -22 0 -73
-22 -151 -65 -65 -36 -130 -65 -144 -65 -27 0 -234 85 -256 105 -7 7 -31 75
-52 150 -41 149 -57 182 -92 190 -47 10 -380 10 -406 -1z m311 -918 c94 -18
163 -45 224 -87 123 -84 206 -187 257 -323 29 -75 31 -90 32 -211 0 -102 -4
-142 -19 -185 -75 -220 -240 -381 -446 -435 -76 -21 -215 -23 -292 -5 -174 40
-338 170 -416 330 -54 109 -72 183 -72 289 0 240 138 465 350 570 130 64 250
82 382 57z"/>
    <path d="M7901 4894 c-169 -45 -304 -180 -355 -353 -9 -32 -16 -91 -16 -142 0
-287 221 -511 505 -511 286 -1 509 227 507 517 -2 228 -151 423 -371 489 -67
20 -197 20 -270 0z"/>
  </g>
  </g>
</svg>
