<svg xmlns="http://www.w3.org/2000/svg" viewBox="0 0 1200 800" fill="none" preserveAspectRatio="xMidYMid slice">
  <defs>
    <linearGradient id="sky" x1="600" y1="0" x2="600" y2="520">
      <stop offset="0%" stop-color="#0a1628"/>
      <stop offset="45%" stop-color="#121f35"/>
      <stop offset="100%" stop-color="#1a2840"/>
    </linearGradient>
    <linearGradient id="skyGlow" x1="400" y1="80" x2="900" y2="400">
      <stop offset="0%" stop-color="#5b8def" stop-opacity="0.18"/>
      <stop offset="100%" stop-color="#5b8def" stop-opacity="0"/>
    </linearGradient>
    <linearGradient id="water" x1="600" y1="480" x2="600" y2="800">
      <stop offset="0%" stop-color="#1e3a5f" stop-opacity="0.5"/>
      <stop offset="100%" stop-color="#0f1115"/>
    </linearGradient>
    <linearGradient id="peakNear" x1="0" y1="0" x2="0" y2="1">
      <stop offset="0%" stop-color="#2a3f5c"/>
      <stop offset="100%" stop-color="#151921"/>
    </linearGradient>
    <linearGradient id="peakFar" x1="0" y1="0" x2="0" y2="1">
      <stop offset="0%" stop-color="#3d5270"/>
      <stop offset="100%" stop-color="#1a2433"/>
    </linearGradient>
  </defs>

  <rect width="1200" height="800" fill="url(#sky)"/>
  <ellipse cx="620" cy="280" rx="420" ry="200" fill="url(#skyGlow)"/>

  <g id="layer-coarse" opacity="1">
    <ellipse cx="200" cy="120" rx="90" ry="90" fill="#eef1f6" opacity="0.07"/>
    <path d="M 0 520 Q 200 380 400 460 T 800 420 T 1200 480 L 1200 800 L 0 800 Z" fill="#151921" opacity="0.85"/>
    <path d="M 0 560 Q 300 440 600 500 T 1200 520 L 1200 800 L 0 800 Z" fill="#0f141c" opacity="0.9"/>
    <rect y="520" width="1200" height="280" fill="url(#water)" opacity="0.4"/>
    <circle cx="950" cy="140" r="50" fill="#5b8def" opacity="0.06"/>
  </g>

  <g id="layer-medium" opacity="0.2">
    <path d="M 0 480 L 180 320 L 320 400 L 480 260 L 640 360 L 820 220 L 980 340 L 1200 300 L 1200 800 L 0 800 Z" fill="url(#peakFar)" opacity="0.7"/>
    <path d="M 0 540 L 240 400 L 420 480 L 580 360 L 760 440 L 940 320 L 1200 400 L 1200 800 L 0 800 Z" fill="url(#peakNear)" opacity="0.85"/>
    <path d="M 0 620 Q 400 580 600 590 T 1200 610" stroke="#5b8def" stroke-width="1" opacity="0.25" fill="none"/>
    <g opacity="0.35">
      <path d="M 80 520 L 100 460 L 120 520 Z" fill="#1a2433"/>
      <path d="M 140 530 L 158 478 L 176 530 Z" fill="#1a2433"/>
      <path d="M 200 525 L 220 465 L 240 525 Z" fill="#212733"/>
      <path d="M 900 515 L 918 455 L 936 515 Z" fill="#1a2433"/>
      <path d="M 960 522 L 978 468 L 996 522 Z" fill="#212733"/>
      <path d="M 1020 518 L 1040 460 L 1060 518 Z" fill="#1a2433"/>
    </g>
    <circle cx="180" cy="95" r="2" fill="#eef1f6" opacity="0.5"/>
    <circle cx="320" cy="60" r="1.5" fill="#eef1f6" opacity="0.4"/>
    <circle cx="890" cy="80" r="2" fill="#eef1f6" opacity="0.45"/>
    <circle cx="1020" cy="110" r="1.5" fill="#eef1f6" opacity="0.35"/>
  </g>

  <g id="layer-fine" opacity="0">
    <path d="M 480 260 L 500 200 L 520 240 L 540 180 L 560 260 Z" fill="#c4cad4" opacity="0.15"/>
    <path d="M 820 220 L 838 165 L 856 210 L 874 175 L 892 220 Z" fill="#eef1f6" opacity="0.12"/>
    <path d="M 0 590 Q 200 570 400 575 T 800 568 T 1200 580" stroke="#5b8def" stroke-width="0.75" opacity="0.4" fill="none"/>
    <path d="M 350 595 Q 600 585 850 592" stroke="#7eb0ff" stroke-width="0.5" opacity="0.25" fill="none"/>
    <g stroke="#5b8def" stroke-width="0.5" opacity="0.2">
      <line x1="100" y1="640" x2="180" y2="640"/>
      <line x1="220" y1="655" x2="320" y2="655"/>
      <line x1="880" y1="645" x2="980" y2="645"/>
    </g>
    <text x="48" y="750" fill="#727b8a" font-family="JetBrains Mono, monospace" font-size="10" opacity="0.5">focus ∞</text>
    <text x="1050" y="750" fill="#5b8def" font-family="JetBrains Mono, monospace" font-size="10" opacity="0.35">clarity</text>
    <circle cx="200" cy="95" r="3" fill="#eef1f6" opacity="0.6"/>
    <circle cx="320" cy="60" r="2" fill="#eef1f6" opacity="0.5"/>
    <circle cx="450" cy="45" r="1.5" fill="#eef1f6" opacity="0.4"/>
    <circle cx="720" cy="70" r="2" fill="#eef1f6" opacity="0.45"/>
    <circle cx="890" cy="80" r="2.5" fill="#eef1f6" opacity="0.55"/>
    <circle cx="1020" cy="110" r="2" fill="#eef1f6" opacity="0.4"/>
    <path d="M 600 120 Q 620 100 640 120" stroke="#5b8def" stroke-width="1" opacity="0.2" fill="none"/>
  </g>
</svg>
